<svg width="17" height="17" viewBox="0 0 17 17" fill="none" xmlns="http://www.w3.org/2000/svg">
<path d="M16.9963 0.404933C17.0125 0.294435 16.975 0.183229 16.8964 0.103897C16.8177 0.0245649 16.7058 -0.0129761 16.5953 0.00402358C11.9839 0.668428 11.9641 0.674095 11.9308 0.684011C11.8004 0.722969 11.6843 0.798759 11.595 0.900757L5.25233 8.5145C5.18999 8.58958 5.07807 8.6002 5.00298 8.53716C4.99873 8.53362 4.99448 8.53008 4.99094 8.52654L3.47646 7.01215C3.06845 6.58999 2.39621 6.57866 1.97403 6.98594C1.55184 7.39322 1.54051 8.06613 1.94782 8.48829C1.95632 8.49679 1.96482 8.506 1.97403 8.5145L8.486 15.0254C8.88905 15.4518 9.562 15.4702 9.98843 15.0665C10.4149 14.6634 10.4333 13.9905 10.0295 13.5641C10.0161 13.5499 10.0019 13.5358 9.98772 13.5223L8.47325 12.0086C8.40383 11.9392 8.40383 11.8273 8.47325 11.7579C8.47679 11.7544 8.48104 11.7501 8.48529 11.7473L16.1087 5.39789C16.2185 5.2973 16.295 5.16485 16.3276 5.01893L16.9963 0.404933ZM14.189 2.81322C14.3959 3.02076 14.3959 3.35651 14.189 3.56404L7.35828 10.3937C7.22015 10.5318 6.9956 10.5318 6.85747 10.3937L6.60742 10.1436C6.46858 10.0055 6.46858 9.78097 6.60671 9.64285L13.4374 2.81252C13.645 2.60498 13.9815 2.60569 14.189 2.81322ZM0.414923 14.5813C-0.138308 15.1345 -0.138308 16.0319 0.414923 16.5851C0.968154 17.1383 1.86565 17.1383 2.41888 16.5851L5.12624 13.8779C5.26437 13.7398 5.26437 13.5152 5.12624 13.3771L3.6238 11.8748C3.48567 11.7366 3.26112 11.7366 3.12299 11.8748L0.414923 14.5813Z" fill="white"/>
</svg>
