<svg width="29" height="29" viewBox="0 0 29 29" fill="none" xmlns="http://www.w3.org/2000/svg">
<path d="M29 1.34981C28.9991 0.604204 28.3947 -6.20436e-05 27.65 4.7781e-09L23.271 0.000365069C22.5253 0.00138188 21.9208 0.60575 21.9208 1.35041C21.9208 1.70746 22.063 2.05209 22.316 2.30506L23.3118 3.30071C23.5753 3.56419 23.5753 3.99189 23.3118 4.2554L8.12177 19.4429C7.98999 19.5746 7.77611 19.5747 7.64435 19.4429C7.59279 19.3914 7.55938 19.3236 7.54888 19.252L5.83589 7.83312C5.79771 7.57536 5.91232 7.31758 6.13003 7.17245C9.41968 4.69667 13.8798 4.45476 17.4163 6.56242C17.6799 6.71515 18.015 6.67216 18.2308 6.45638L19.6766 5.01086C19.9402 4.74735 19.9411 4.3206 19.6786 4.05618C19.6394 4.01704 19.5955 3.98267 19.5478 3.95404C14.6268 0.805889 8.21399 1.30095 3.8338 5.16684C3.36971 5.57931 2.76243 5.58699 2.10746 4.93213C1.84395 4.66866 1.41618 4.6687 1.15262 4.93221L0.197693 5.88698C-0.0658664 6.1505 -0.0659021 6.5782 0.197613 6.84167L1.39298 8.03684C1.76247 8.40627 2.24083 8.64777 2.75835 8.7241C3.05148 8.76894 3.28063 8.99805 3.32548 9.29113L5.3095 22.5506C5.39729 23.1387 5.85749 23.5988 6.44567 23.6866L19.7035 25.676C19.9957 25.7199 20.2258 25.95 20.2697 26.2421C20.346 26.7595 20.5876 27.2378 20.9571 27.6073L22.1524 28.8024C22.4159 29.0659 22.8437 29.0659 23.1073 28.8023L24.0622 27.8476C24.3258 27.5841 24.3258 27.1564 24.0623 26.8929C23.4073 26.238 23.415 25.6308 23.8275 25.1668C28.4045 19.8975 28.007 12.8014 23.7144 7.57768C23.4929 7.30848 23.514 6.91515 23.7613 6.66977L24.741 5.69018C25.0046 5.42666 25.4324 5.42663 25.6959 5.6901L26.6917 6.68576C27.2168 7.21461 28.0724 7.21645 28.6014 6.69132C28.8583 6.4364 29.0006 6.08984 28.9996 5.72801L29 1.34981ZM21.8254 22.8633C21.6803 23.081 21.4224 23.1956 21.1637 23.1565L9.73816 21.4524C9.55387 21.4266 9.42594 21.2548 9.45173 21.0705C9.46224 20.9989 9.49567 20.9311 9.54723 20.8796L20.4143 10.0143C20.6759 9.74889 21.1037 9.74504 21.3691 10.0066C21.3901 10.0276 21.4092 10.0486 21.4274 10.0725C24.5322 13.7191 24.6979 19.0291 21.8254 22.8633Z" fill="white"/>
</svg>
